<svg width="2240" height="2240" viewBox="0 0 2240 2240" fill="none" xmlns="http://www.w3.org/2000/svg">
<mask id="mask0_11_541" style="mask-type:alpha" maskUnits="userSpaceOnUse" x="0" y="0" width="2240" height="2240">
<circle cx="1120" cy="1120" r="1120" fill="#D9D9D9"/>
</mask>
<g mask="url(#mask0_11_541)">
<path d="M2446.34 2267H-207V-26.9998H2446.34V2267Z" fill="white"/>
<path d="M1122.81 771.044C984.227 771.044 864.441 851.384 807.487 967.994C794.536 1018.07 787.501 1108.88 879.043 1169.45C1011.15 1256.86 1111.04 1139.55 1129.45 1106.88C1147.87 1074.22 1235.32 1013.95 1341.19 1059.5C1443.48 1103.5 1458.11 1214.93 1422.44 1303.74C1454.83 1250.65 1473.49 1188.27 1473.49 1121.54C1473.49 927.97 1316.48 771.044 1122.81 771.044Z" fill="#C60C30"/>
<path d="M1341.19 1059.5C1235.32 1013.95 1147.87 1074.22 1129.45 1106.88C1111.04 1139.55 1011.15 1256.86 879.043 1169.45C787.501 1108.88 794.536 1018.07 807.487 967.994C784.836 1014.37 772.112 1066.47 772.112 1121.54C772.112 1315.11 929.124 1472.04 1122.81 1472.04C1249.71 1472.04 1360.87 1404.66 1422.44 1303.74C1458.11 1214.93 1443.48 1103.5 1341.19 1059.5Z" fill="#003478"/>
<path d="M436.685 877.03L389.636 845.068L586.94 554.972L633.988 586.934L436.685 877.03Z" fill="#231F20"/>
<path d="M509.627 925.631L462.579 893.668L659.881 603.573L706.924 635.535L509.627 925.631Z" fill="#231F20"/>
<path d="M584.185 974.231L537.141 942.27L734.444 652.173L781.488 684.136L584.185 974.231Z" fill="#231F20"/>
<path d="M1598.51 785.743L1551.27 817.422L1461.96 684.382L1509.2 652.706L1598.51 785.743Z" fill="#231F20"/>
<path d="M1702.79 944.031L1655.55 975.707L1566.24 842.671L1613.48 810.997L1702.79 944.031Z" fill="#231F20"/>
<path d="M1777.09 894.531L1729.85 926.207L1534.32 634.916L1581.56 603.243L1777.09 894.531Z" fill="#231F20"/>
<path d="M1745.6 687.962L1698.36 719.638L1607.28 583.948L1654.52 552.271L1745.6 687.962Z" fill="#231F20"/>
<path d="M1849.32 845.692L1802.09 877.367L1712.73 744.252L1759.97 712.58L1849.32 845.692Z" fill="#231F20"/>
<path d="M632.309 1653.93L585.067 1685.61L392.905 1399.33L440.148 1367.65L632.309 1653.93Z" fill="#231F20"/>
<path d="M778.991 1555.97L731.748 1587.65L539.587 1301.37L586.829 1269.7L778.991 1555.97Z" fill="#231F20"/>
<path d="M602.219 1449.58L554.975 1481.26L463.895 1345.57L511.139 1313.89L602.219 1449.58Z" fill="#231F20"/>
<path d="M705.944 1607.31L658.701 1638.99L569.347 1505.88L616.589 1474.2L705.944 1607.31Z" fill="#231F20"/>
<path d="M1457.85 1558.57L1504.89 1590.53L1595.87 1456.77L1548.36 1425.48L1457.85 1558.57Z" fill="#231F20"/>
<path d="M1702.2 1300.43L1655.16 1268.47L1565.2 1400.73L1612.71 1432.02L1702.2 1300.43Z" fill="#231F20"/>
<path d="M1775.13 1349.03L1728.09 1317.07L1638.4 1448.95L1685.91 1480.24L1775.13 1349.03Z" fill="#231F20"/>
<path d="M1530.79 1607.17L1577.84 1639.13L1669.08 1504.98L1621.57 1473.69L1530.79 1607.17Z" fill="#231F20"/>
<path d="M1849.71 1397.63L1802.65 1365.67L1712.72 1497.9L1760.23 1529.19L1849.71 1397.63Z" fill="#231F20"/>
<path d="M1605.35 1655.77L1652.4 1687.73L1743.4 1553.93L1695.89 1522.64L1605.35 1655.77Z" fill="#231F20"/>
</g>
</svg>
